<svg xmlns="http://www.w3.org/2000/svg" viewBox="0 0 30.29 30.29" width="512" height="512"><path d="M4.468 20.44l5.38 5.38 12.238-12.24-5.381-5.379L4.468 20.44zm5.551 4.127l-4.297-4.3L16.624 9.368l4.295 4.299-10.9 10.9zm6.966-19.581l8.316 8.325-.984.983L16 5.969l.985-.983zm13.305 2.35l-.811.811-1.46-1.461-4.065 4.065-4.414-4.418 4.063-4.062-1.46-1.459.811-.812 7.336 7.336zM5.547 22.95l1.792 1.791L.718 30.29 0 29.57l5.547-6.62zm2.827-5.311l2.691 2.69-1.006 1.007-2.691-2.689 1.006-1.008zm2.482-2.481l2.692 2.69-1.007 1.008-2.692-2.69 1.007-1.008zm2.402-2.401l2.691 2.688-1.008 1.009-2.691-2.687 1.008-1.01zm2.127-2.127l2.689 2.69-1.006 1.007-2.69-2.69 1.007-1.007z" fill="#ff4136"/></svg>