<svg height="24" viewBox="0 0 24 24" width="24" xmlns="http://www.w3.org/2000/svg"><path d="M19.862 20.688h-5.09V8.115h-1.945V5.869h-1.654v2.246H9.228v12.573h-5.09a.415.415 0 0 0-.415.416v.825c0 .23.186.416.415.416h1.241L7.035 24h9.931l1.656-1.654h1.241a.415.415 0 0 0 .415-.416v-.825a.417.417 0 0 0-.416-.417z" fill="#FF4136"/><path d="M10.497 6.627c0-1.092 1.501-3.006 1.501-3.006s1.504 1.914 1.504 3.006c0 .253-.041.495-.107.72.604-.571 1-1.502 1-2.556C14.396 3.049 12 0 12 0S9.604 3.049 9.604 4.791c0 1.054.396 1.984 1 2.556a2.522 2.522 0 0 1-.107-.72z" fill="#FF851B"/></svg>