<svg height="512" preserveAspectRatio="xMidYMid" viewBox="0 0 512 512" width="512" xmlns="http://www.w3.org/2000/svg"><defs><style>.cls-1,.cls-3{fill:#fff}.cls-2,.cls-4{fill:#000}.cls-2,.cls-3,.cls-4{fill-rule:evenodd}.cls-3,.cls-4{opacity:.1}</style></defs><circle class="cls-1" cx="256" cy="256" r="256"/><path class="cls-2" d="M256 512C114.615 512 0 397.385 0 256S114.615 0 256 0s256 114.615 256 256-114.615 256-256 256zm94.424-196.206l1.063-87.017s-.568-3.145-2.715-4.406l-71.865-42.218c-3.131-1.839-2.449 1.732-2.449 1.732v88.275c0 1.946 1.775 3.525 1.775 3.525l71.562 41.601c3.179 1.848 2.629-1.492 2.629-1.492zm-76.336 46.093l71.496-39.431c3.294-1.817-.378-3.12-.378-3.12l-69.936-41.272c-1.632-.963-4.855.519-4.855.519l-71.751 41.098s-2.931 1.084.289 2.859l70.576 38.924s3.05 1.255 4.559.423zm-163.97-179.828l-1.103 180.604s.385 2.75 2.061 3.657l155.731 84.255c2.82 1.525 2.248-1.562 2.248-1.562l.285-79.785s-.535-2.468-2.65-3.612l-76.094-41.164v-98.151c0-1.151-1.372-2.219-1.372-2.219l-77.129-43.396c-2.482-1.396-1.977 1.373-1.977 1.373zm318.341-5.71l-154.732-83.09c-1.161-.623-3.273.09-3.273.09L114.291 175.58c-2.445 1.287.057 2.119.057 2.119l76.787 42.797s2.107.745 3.421-.007l79.595-45.559 77.265 46.241s2.833 1.152 4.618.119l72.811-42.154s2.833-1.058-.386-2.787z"/><path class="cls-3" d="M75.001 436.988c-99.96-99.96-99.96-262.027 0-361.987 99.96-99.96 262.027-99.96 361.987 0"/><path class="cls-4" d="M437.025 75.012c99.967 99.967 99.967 262.046 0 362.013-99.967 99.967-262.046 99.967-362.013 0"/></svg>